<svg xmlns="http://www.w3.org/2000/svg" viewBox="0 0 32 32" fill="none">
  <rect width="32" height="32" rx="8" fill="#059669"/>
  <path d="M16 6C10.477 6 6 10.477 6 16c0 1.76.46 3.41 1.26 4.84L6 26l5.34-1.2A9.96 9.96 0 0016 26c5.523 0 10-4.477 10-10S21.523 6 16 6z" fill="#fff" fill-opacity="0.9"/>
  <path d="M19.5 17.5c-.3-.15-1.77-.87-2.04-.97-.27-.1-.47-.15-.67.15-.2.3-.77.97-.94 1.17-.17.2-.35.22-.65.07-.3-.15-1.27-.47-2.42-1.49-.9-.8-1.5-1.78-1.67-2.08-.18-.3-.02-.46.13-.61.13-.13.3-.35.45-.52.15-.17.2-.3.3-.5.1-.2.05-.37-.02-.52-.08-.15-.67-1.62-.92-2.22-.25-.6-.5-.52-.67-.52h-.58c-.2 0-.52.07-.79.37-.27.3-1.04 1.02-1.04 2.49 0 1.47 1.07 2.89 1.22 3.09.15.2 2.1 3.2 5.08 4.49.71.31 1.26.49 1.69.63.71.23 1.36.2 1.87.12.57-.08 1.77-.72 2.02-1.42.25-.7.25-1.3.17-1.42-.07-.12-.27-.2-.57-.35z" fill="#059669"/>
</svg>
